<svg width="18" height="19" viewBox="0 0 18 19" fill="none" xmlns="http://www.w3.org/2000/svg">
<path d="M16.6 18.0139L10.3 11.7091C9.8 12.1094 9.225 12.4263 8.575 12.6598C7.925 12.8933 7.23333 13.0101 6.5 13.0101C4.68333 13.0101 3.14583 12.3804 1.8875 11.1211C0.629167 9.8618 0 8.32311 0 6.50504C0 4.68696 0.629167 3.14827 1.8875 1.88896C3.14583 0.629654 4.68333 0 6.5 0C8.31667 0 9.85417 0.629654 11.1125 1.88896C12.3708 3.14827 13 4.68696 13 6.50504C13 7.23894 12.8833 7.93114 12.65 8.58164C12.4167 9.23215 12.1 9.80759 11.7 10.308L18 16.6129L16.6 18.0139ZM6.5 11.0085C7.75 11.0085 8.8125 10.5707 9.6875 9.69501C10.5625 8.81933 11 7.756 11 6.50504C11 5.25407 10.5625 4.19074 9.6875 3.31507C8.8125 2.43939 7.75 2.00155 6.5 2.00155C5.25 2.00155 4.1875 2.43939 3.3125 3.31507C2.4375 4.19074 2 5.25407 2 6.50504C2 7.756 2.4375 8.81933 3.3125 9.69501C4.1875 10.5707 5.25 11.0085 6.5 11.0085Z" fill="#404040"/>
</svg>
