<svg width="12" height="15" viewBox="0 0 12 15" fill="none" xmlns="http://www.w3.org/2000/svg">
<path d="M1.5 8.60526C1.5 9.24386 1.63125 9.84868 1.89375 10.4197C2.15625 10.9908 2.53125 11.4912 3.01875 11.9211C3.00625 11.8596 3 11.8044 3 11.7553V11.5895C3 11.1965 3.075 10.8281 3.225 10.4842C3.375 10.1404 3.59375 9.82719 3.88125 9.54474L6 7.5L8.11875 9.54474C8.40625 9.82719 8.625 10.1404 8.775 10.4842C8.925 10.8281 9 11.1965 9 11.5895V11.7553C9 11.8044 8.99375 11.8596 8.98125 11.9211C9.46875 11.4912 9.84375 10.9908 10.1063 10.4197C10.3688 9.84868 10.5 9.24386 10.5 8.60526C10.5 7.99123 10.3844 7.41096 10.1531 6.86447C9.92188 6.31798 9.5875 5.82982 9.15 5.4C8.9 5.55965 8.6375 5.67939 8.3625 5.75921C8.0875 5.83904 7.80625 5.87895 7.51875 5.87895C6.74375 5.87895 6.07188 5.62719 5.50313 5.12368C4.93437 4.62018 4.60625 4 4.51875 3.26316C4.03125 3.66842 3.6 4.08904 3.225 4.525C2.85 4.96096 2.53438 5.40307 2.27813 5.85132C2.02188 6.29956 1.82812 6.75702 1.69688 7.22368C1.56563 7.69035 1.5 8.15088 1.5 8.60526ZM6 9.56316L4.93125 10.5947C4.79375 10.7298 4.6875 10.8833 4.6125 11.0553C4.5375 11.2272 4.5 11.4053 4.5 11.5895C4.5 11.9825 4.64687 12.3202 4.94063 12.6026C5.23438 12.8851 5.5875 13.0263 6 13.0263C6.4125 13.0263 6.76563 12.8851 7.05938 12.6026C7.35313 12.3202 7.5 11.9825 7.5 11.5895C7.5 11.393 7.4625 11.2118 7.3875 11.0461C7.3125 10.8803 7.20625 10.7298 7.06875 10.5947L6 9.56316ZM6 0.5V2.93158C6 3.34912 6.14688 3.69912 6.44063 3.98158C6.73438 4.26403 7.09375 4.40526 7.51875 4.40526C7.74375 4.40526 7.95312 4.35921 8.14688 4.26711C8.34062 4.175 8.5125 4.03684 8.6625 3.85263L9 3.44737C9.925 3.96316 10.6562 4.68158 11.1938 5.60263C11.7312 6.52368 12 7.52456 12 8.60526C12 10.2509 11.4187 11.6447 10.2563 12.7868C9.09375 13.9289 7.675 14.5 6 14.5C4.325 14.5 2.90625 13.9289 1.74375 12.7868C0.58125 11.6447 0 10.2509 0 8.60526C0 7.02105 0.540625 5.51667 1.62188 4.09211C2.70313 2.66754 4.1625 1.47018 6 0.5Z" fill="#BABABA"/>
</svg>
