<svg width="25" height="24" viewBox="0 0 25 24" fill="none" xmlns="http://www.w3.org/2000/svg">
<path d="M19.6152 3.7623C20.4177 3.46361 21.2 4.24598 20.9014 5.04844L15.2061 20.3492C15.0602 20.7404 14.687 20.9995 14.2695 20.9996H14.2383C13.8308 20.9995 13.4643 20.7524 13.3115 20.3746L10.7139 13.9498L4.28906 11.3531C3.91123 11.2004 3.66406 10.8329 3.66406 10.4254V10.3951C3.66406 9.97738 3.92393 9.60334 4.31543 9.45762L19.6152 3.7623ZM12.666 13.4117L14.2139 17.3004L17.4268 8.65098L12.666 13.4117ZM7.36426 10.4498L11.252 11.9967L16.0137 7.23496L7.36426 10.4498Z" fill="white" fill-opacity="0.92"/>
</svg>
