<svg width="24" height="24" viewBox="0 0 24 24" fill="none" xmlns="http://www.w3.org/2000/svg">
<path d="M20 23C20 23.5523 19.5523 24 19 24H4C3.44777 23.9999 3 23.5522 3 23V22.5H20V23ZM19.1025 7.00488C19.6067 7.05621 20 7.48232 20 8V19L19.9951 19.1025C19.9472 19.573 19.573 19.9472 19.1025 19.9951L19 20H4L3.89746 19.9951C3.42703 19.9472 3.05278 19.573 3.00488 19.1025L3 19V8C3 7.48232 3.39333 7.05621 3.89746 7.00488L4 7H19L19.1025 7.00488ZM5 18H18V9H5V18ZM19 3C19.5523 3 20 3.44772 20 4V4.5H3V4C3 3.44776 3.44777 3.00007 4 3H19ZM19 0C19.5523 0 20 0.447715 20 1V1.5H3V1C3 0.447756 3.44777 6.59679e-05 4 0H19Z" fill="#404040"/>
</svg>
