<svg width="24" height="24" viewBox="0 0 24 24" fill="none" xmlns="http://www.w3.org/2000/svg">
<g clip-path="url(#clip0_496_5125)">
<mask id="mask0_496_5125" style="mask-type:alpha" maskUnits="userSpaceOnUse" x="0" y="0" width="24" height="24">
<rect width="24" height="24" fill="#D9D9D9"/>
</mask>
<g mask="url(#mask0_496_5125)">
</g>
<g clip-path="url(#clip1_496_5125)">
<path d="M20.0786 6.20289L12.8224 2.22044C12.2836 1.9244 11.6289 1.92617 11.0911 2.22399L3.91516 6.20112C3.34965 6.51489 3 7.10699 3 7.74961V16.0176C3 16.662 3.35144 17.255 3.91873 17.5679L11.9554 21.9997L20.075 17.5661C20.645 17.255 21 16.6594 21 16.0123V7.75404C21 7.10876 20.6468 6.51401 20.0786 6.20201V6.20289ZM17.1315 14.2875C17.1315 14.6562 16.929 14.9957 16.6044 15.1729L11.975 17.7009L7.39296 15.1738C7.07007 14.9957 6.86938 14.6571 6.86938 14.2901V9.57641C6.86938 9.21034 7.06918 8.87263 7.39118 8.69359L11.4827 6.42626C11.7895 6.25608 12.1623 6.25519 12.4701 6.42449L16.607 8.69536C16.9308 8.87352 17.1324 9.21211 17.1324 9.57995V14.2883L17.1315 14.2875Z" fill="#333333"/>
</g>
</g>
<defs>
<clipPath id="clip0_496_5125">
<rect width="24" height="24" rx="4" fill="white"/>
</clipPath>
<clipPath id="clip1_496_5125">
<rect width="18" height="20" fill="white" transform="translate(3 2)"/>
</clipPath>
</defs>
</svg>
