<svg width="15" height="14" viewBox="0 0 15 14" fill="none" xmlns="http://www.w3.org/2000/svg">
<mask id="mask0_2435_2862" style="mask-type:alpha" maskUnits="userSpaceOnUse" x="0" y="0" width="15" height="14">
<rect x="0.5" width="14" height="14" fill="white" fill-opacity="0.92"/>
</mask>
<g mask="url(#mask0_2435_2862)">
<path d="M11.583 5.24998L10.8538 3.64581L9.24967 2.91665L10.8538 2.18748L11.583 0.583313L12.3122 2.18748L13.9163 2.91665L12.3122 3.64581L11.583 5.24998ZM11.583 13.4166L10.8538 11.8125L9.24967 11.0833L10.8538 10.3541L11.583 8.74998L12.3122 10.3541L13.9163 11.0833L12.3122 11.8125L11.583 13.4166ZM5.74967 11.6666L4.29134 8.45831L1.08301 6.99998L4.29134 5.54165L5.74967 2.33331L7.20801 5.54165L10.4163 6.99998L7.20801 8.45831L5.74967 11.6666ZM5.74967 8.83748L6.33301 7.58331L7.58718 6.99998L6.33301 6.41665L5.74967 5.16248L5.16634 6.41665L3.91217 6.99998L5.16634 7.58331L5.74967 8.83748Z" fill="#F0F0F0"/>
</g>
</svg>
