<svg width="13" height="12" viewBox="0 0 13 12" fill="none" xmlns="http://www.w3.org/2000/svg">
<path d="M1.83333 12C1.46667 12 1.15278 11.8694 0.891667 11.6083C0.630556 11.3472 0.5 11.0333 0.5 10.6667V1.33333C0.5 0.966667 0.630556 0.652778 0.891667 0.391667C1.15278 0.130556 1.46667 0 1.83333 0H6.5V1.33333H1.83333V10.6667H11.1667V6H12.5V10.6667C12.5 11.0333 12.3694 11.3472 12.1083 11.6083C11.8472 11.8694 11.5333 12 11.1667 12H1.83333ZM4.96667 8.46667L4.03333 7.53333L10.2333 1.33333H7.83333V0H12.5V4.66667H11.1667V2.26667L4.96667 8.46667Z" fill="#085CFF"/>
</svg>
