<svg width="24" height="24" viewBox="0 0 24 24" fill="none" xmlns="http://www.w3.org/2000/svg">
<path d="M19.2725 1.96835C20.7787 1.96835 22 3.18966 22 4.69589V18.3316C22 19.8379 20.7787 21.0592 19.2725 21.0592H11.3262V19.2408H19.2725C19.7745 19.2408 20.1816 18.8337 20.1816 18.3316V4.69589C20.1816 4.19382 19.7745 3.78671 19.2725 3.78671H4.72754C4.22546 3.78671 3.81836 4.19382 3.81836 4.69589V13.981H2V4.69589C2 3.18966 3.22131 1.96835 4.72754 1.96835H19.2725ZM14 16.9996H12V12.4L3.40039 20.9996L2 19.6002L10.5996 10.9996H6V8.9996H14V16.9996Z" fill="#333333"/>
</svg>
