<svg width="14" height="15" viewBox="0 0 14 15" fill="none" xmlns="http://www.w3.org/2000/svg">
<mask id="mask0_2435_3132" style="mask-type:alpha" maskUnits="userSpaceOnUse" x="0" y="0" width="14" height="15">
<rect y="0.5" width="14" height="14" fill="white" fill-opacity="0.92"/>
</mask>
<g mask="url(#mask0_2435_3132)">
<path d="M11.0835 5.74998L10.3543 4.14581L8.75016 3.41665L10.3543 2.68748L11.0835 1.08331L11.8127 2.68748L13.4168 3.41665L11.8127 4.14581L11.0835 5.74998ZM11.0835 13.9166L10.3543 12.3125L8.75016 11.5833L10.3543 10.8541L11.0835 9.24998L11.8127 10.8541L13.4168 11.5833L11.8127 12.3125L11.0835 13.9166ZM5.25016 12.1666L3.79183 8.95831L0.583496 7.49998L3.79183 6.04165L5.25016 2.83331L6.7085 6.04165L9.91683 7.49998L6.7085 8.95831L5.25016 12.1666ZM5.25016 9.33748L5.8335 8.08331L7.08766 7.49998L5.8335 6.91665L5.25016 5.66248L4.66683 6.91665L3.41266 7.49998L4.66683 8.08331L5.25016 9.33748Z" fill="#BABABA"/>
</g>
</svg>
