<svg width="40" height="40" viewBox="0 0 40 40" fill="none" xmlns="http://www.w3.org/2000/svg">
  <path d="M20 0C31.0457 0 40 8.9543 40 20C40 31.0457 31.0457 40 20 40C8.9543 40 0 31.0457 0 20C0 8.9543 8.9543 0 20 0Z" fill="#232935" fill-opacity="0.7"/>
  <path d="M24.473 11.071C25.657 11.071 26.768 11.561 27.605 12.44C28.461 13.34 28.929 14.538 28.929 15.809C28.929 17.08 28.461 18.278 27.605 19.178L26.216 20.637L20.226 26.933L12.385 19.167C11.535 18.268 11.071 17.075 11.071 15.809C11.071 14.538 11.539 13.34 12.395 12.44C13.232 11.561 14.343 11.071 15.527 11.071C16.712 11.071 17.823 11.561 18.659 12.44L20 13.849L21.341 12.44C22.177 11.561 23.288 11.071 24.473 11.071Z" stroke="white" stroke-width="1.5" fill="none"/>
</svg> 