<svg width="116" height="26" viewBox="0 0 116 26" fill="none" xmlns="http://www.w3.org/2000/svg">
<g clip-path="url(#clip0_496_5065)">
<path d="M22.6465 18.4876L11.8191 0.185188H0L15.1454 25.8078H22.6465V18.4876Z" fill="#1A1A1A"/>
<path d="M38.1928 18.4876L27.3691 0.185188H15.5464L30.6953 25.8078H38.1928V18.4876Z" fill="#1A1A1A"/>
<path d="M41.9416 4.44806L38.0604 4.46553V12.8655L45.5579 0.185188H30.5593" fill="#1A1A1A"/>
<path d="M51.1076 0.188683H54.0006L55.5223 8.07848H55.6834L57.5596 0.188683H60.2127L62.0889 8.07848H62.25L63.7681 0.188683H66.6289V0.426285L64.1405 11.5517H60.6316L58.9488 4.51445H58.7877L57.1049 11.5517H53.596L51.1076 0.426285V0.188683Z" fill="#1A1A1A"/>
<path d="M72.0605 0C75.197 0 76.8153 1.54791 76.9442 3.42427V3.66187H74.1622C74.1443 2.44591 73.2564 1.98817 72.1249 1.98817C70.9935 1.98817 70.3132 2.49483 70.3132 3.21812C70.3132 3.9414 70.9291 4.30829 72.0283 4.52842L73.7899 4.87434C76.0205 5.31461 77.2665 6.29297 77.2665 8.20427C77.2665 10.1156 75.7627 11.7404 72.4329 11.7404C69.103 11.7404 67.3056 10.1156 67.2412 8.1903V7.95269H70.0554C70.1843 9.16866 71.0902 9.75218 72.4006 9.75218C73.7111 9.75218 74.3556 9.16866 74.3556 8.41043C74.3556 7.6522 73.7899 7.32025 72.5439 7.06867L70.7823 6.72275C68.6161 6.29646 67.4023 5.09797 67.4023 3.39282C67.4023 1.68768 68.9204 0 72.0605 0Z" fill="#1A1A1A"/>
<path d="M84.0587 0C87.7143 0 89.2647 2.19433 89.347 4.11961V4.35721H86.5328C86.4826 3.41029 85.9026 2.1489 84.0909 2.1489C82.2792 2.1489 81.1477 3.66537 81.1477 5.87367C81.1477 8.08198 82.2147 9.59844 84.0909 9.59844C85.967 9.59844 86.4683 8.3056 86.5793 7.29579H89.3935V7.5334C89.2145 9.47265 87.743 11.7473 84.0587 11.7473C80.3744 11.7473 78.1724 9.35036 78.1724 5.87717C78.1724 2.40398 80.3063 0 84.0587 0Z" fill="#1A1A1A"/>
<path d="M55.9985 14.2701C58.6839 14.2701 60.3631 15.5175 60.5421 17.5372V17.7748H59.1279C59.0312 16.0766 57.7136 15.3917 56.0236 15.3917C54.3336 15.3917 53.1521 16.0941 53.1521 17.3485C53.1521 18.6029 54.2047 19.0117 55.7479 19.3122L57.1479 19.5812C59.2496 19.9901 60.7856 20.7099 60.7856 22.705C60.7856 24.7002 59.1279 25.9965 56.3387 25.9965C53.5495 25.9965 51.659 24.7351 51.4478 22.691V22.4534H52.8799C53.0983 24.1795 54.552 24.8749 56.3315 24.8749C58.111 24.8749 59.3212 24.1795 59.3212 22.7924C59.3212 21.4052 58.1576 21.0732 56.5893 20.7658L55.1893 20.4967C53.1449 20.1019 51.6876 19.2493 51.6876 17.3869C51.6876 15.5245 53.306 14.2701 55.9985 14.2701Z" fill="#1A1A1A"/>
<path d="M62.8336 14.4483H67.8606C69.9301 14.4483 71.5807 15.6014 71.5807 17.6979C71.5807 19.7944 69.9301 20.9475 67.8606 20.9475H64.3123V25.8078H62.8336V14.4483ZM64.3123 15.6014V19.8049H67.6028C69.0994 19.8049 70.102 19.0536 70.102 17.6979C70.102 16.3422 69.0994 15.5979 67.6028 15.5979H64.3123V15.6014Z" fill="#1A1A1A"/>
<path d="M78.3836 14.2596C81.6561 14.2596 83.9047 16.4225 83.9047 20.1298C83.9047 23.8371 81.6561 26 78.3836 26C75.111 26 72.8553 23.8371 72.8553 20.1298C72.8553 16.4225 75.1039 14.2596 78.3836 14.2596ZM78.3836 24.833C80.8398 24.833 82.4188 23.0964 82.4188 20.1298C82.4188 17.1633 80.8434 15.4267 78.3836 15.4267C75.9238 15.4267 74.3412 17.1633 74.3412 20.1298C74.3412 23.0964 75.9274 24.833 78.3836 24.833Z" fill="#1A1A1A"/>
<path d="M94.6676 24.0363C94.7571 24.7456 94.8789 25.1649 95.1438 25.5737V25.8113H93.6328C93.4073 25.3606 93.2784 24.9203 93.2032 24.1481L93.1065 23.037C92.9776 21.5764 92.3546 20.9999 90.4319 20.9999H87.4816V25.8113H86.0029V14.4518H91.2411C93.3751 14.4518 95.0006 15.4861 95.0006 17.5372C95.0006 19.1375 94.0947 20.0215 92.8093 20.3465V20.5037C94.0374 20.7972 94.3955 21.5205 94.5387 22.8308L94.6676 24.0363ZM87.4816 15.6014V19.8468H91.0871C92.5587 19.8468 93.5433 19.1689 93.5433 17.7258C93.5433 16.2828 92.5587 15.6049 91.0871 15.6049H87.4816V15.6014Z" fill="#1A1A1A"/>
<path d="M95.9637 14.4483H105.86V15.6084H101.657V25.8078H100.171V15.6084H95.9673V14.4483H95.9637Z" fill="#1A1A1A"/>
<path d="M111.213 14.2701C113.898 14.2701 115.577 15.5175 115.756 17.5372V17.7748H114.342C114.246 16.0766 112.928 15.3917 111.238 15.3917C109.548 15.3917 108.366 16.0941 108.366 17.3485C108.366 18.6029 109.419 19.0117 110.962 19.3122L112.362 19.5812C114.464 19.9901 116 20.7099 116 22.705C116 24.7002 114.342 25.9965 111.553 25.9965C108.764 25.9965 106.873 24.7351 106.662 22.691V22.4534H108.094C108.313 24.1795 109.766 24.8749 111.546 24.8749C113.325 24.8749 114.536 24.1795 114.536 22.7924C114.536 21.4052 113.372 21.0732 111.804 20.7658L110.404 20.4967C108.359 20.1019 106.902 19.2493 106.902 17.3869C106.902 15.5245 108.52 14.2701 111.209 14.2701H111.213Z" fill="#1A1A1A"/>
</g>
<defs>
<clipPath id="clip0_496_5065">
<rect width="116" height="26" fill="white"/>
</clipPath>
</defs>
</svg>
